<svg width="1920" height="374" viewBox="0 0 1920 374" fill="none" xmlns="http://www.w3.org/2000/svg">
<g opacity="0.25" clip-path="url(#clip0_1107_71906)">
<path d="M1866.05 -449C1825.14 -435.078 1744.46 -374.438 1749 -243.259C1754.67 -79.2848 1878.42 23.3279 1909.36 178.02C1932.2 292.195 1928.96 578.158 1789.73 698.303" stroke="white"/>
<path d="M1810.33 -415.16C1769.42 -401.237 1688.74 -340.598 1693.28 -209.418C1698.95 -45.4444 1822.7 57.1684 1853.64 211.861C1876.48 326.036 1873.24 611.999 1734.01 732.143" stroke="white"/>
<path d="M1753.76 -382.747C1712.85 -368.825 1632.17 -308.185 1636.71 -177.006C1642.38 -13.0318 1766.13 89.5809 1797.07 244.273C1819.91 358.448 1816.66 644.412 1677.44 764.556" stroke="white"/>
<path d="M1696.4 -351.752C1655.49 -337.83 1574.81 -277.19 1579.35 -146.011C1585.02 17.9631 1708.77 120.576 1739.71 275.268C1762.55 389.443 1759.31 675.406 1620.08 795.551" stroke="white"/>
<path d="M1638.26 -322.238C1597.36 -308.316 1516.67 -247.676 1521.21 -116.497C1526.88 47.4772 1650.64 150.09 1681.58 304.782C1704.41 418.957 1701.17 704.921 1561.95 825.065" stroke="white"/>
<path d="M1579.35 -294.313C1538.44 -280.391 1457.76 -219.751 1462.3 -88.572C1467.97 75.4021 1591.72 178.015 1622.66 332.707C1645.5 446.882 1642.26 732.845 1503.03 852.99" stroke="white"/>
<path d="M1519.64 -268.13C1478.73 -254.207 1398.05 -193.568 1402.59 -62.3887C1408.26 101.585 1532.01 204.198 1562.95 358.891C1585.79 473.065 1582.55 759.029 1443.32 879.173" stroke="white"/>
<path d="M1459.12 -243.886C1418.21 -229.964 1337.53 -169.325 1342.07 -38.1454C1347.74 125.829 1471.49 228.441 1502.43 383.134C1525.27 497.309 1522.02 783.272 1382.8 903.417" stroke="white"/>
<path d="M1397.76 -221.835C1356.85 -207.913 1276.17 -147.273 1280.71 -16.0941C1286.38 147.88 1410.14 250.493 1441.07 405.185C1463.91 519.36 1460.67 805.323 1321.45 925.468" stroke="white"/>
<path d="M1335.56 -202.296C1294.65 -188.374 1213.97 -127.735 1218.51 3.44471C1224.18 167.419 1347.93 270.032 1378.87 424.724C1401.71 538.899 1398.47 824.862 1259.24 945.007" stroke="white"/>
<path d="M1272.52 -185.675C1231.61 -171.753 1150.93 -111.113 1155.47 20.0662C1161.14 184.04 1284.89 286.653 1315.83 441.346C1338.67 555.52 1335.42 841.484 1196.2 961.628" stroke="white"/>
<path d="M1208.67 -172.485C1167.76 -158.563 1087.08 -97.9236 1091.62 33.2557C1097.29 197.23 1221.04 299.842 1251.98 454.535C1274.82 568.71 1271.57 854.673 1132.35 974.818" stroke="white"/>
<path d="M1144.11 -163.381C1103.2 -149.459 1022.52 -88.8192 1027.06 42.3601C1032.73 206.334 1156.48 308.947 1187.42 463.639C1210.26 577.814 1207.02 863.778 1067.79 983.922" stroke="white"/>
<path d="M1079.05 -159.18C1038.14 -145.258 957.458 -84.6183 961.995 46.561C967.667 210.535 1091.42 313.148 1122.36 467.84C1145.19 582.015 1141.95 867.978 1002.73 988.123" stroke="white"/>
<path d="M1013.87 -160.889C972.963 -146.967 892.282 -86.3274 896.82 44.8519C902.492 208.826 1026.25 311.439 1057.18 466.131C1080.02 580.306 1076.78 866.269 937.556 986.414" stroke="white"/>
<path d="M949.267 -169.67C908.359 -155.748 827.678 -95.1083 832.216 36.071C837.888 200.045 961.642 302.658 992.581 457.35C1015.42 571.525 1012.17 857.488 872.952 977.633" stroke="white"/>
<path d="M886.333 -186.706C845.426 -172.783 764.745 -112.144 769.283 19.0354C774.955 183.009 898.709 285.622 929.647 440.315C952.482 554.489 949.242 840.453 810.018 960.597" stroke="white"/>
<path d="M815.801 -217.49C774.894 -203.567 694.213 -142.928 698.751 -11.7485C704.423 152.226 828.177 254.838 859.115 409.531C881.95 523.706 878.71 809.669 739.486 929.813" stroke="white"/>
<path d="M755.371 -241.962C714.463 -228.039 633.782 -167.4 638.32 -36.2207C643.992 127.753 767.746 230.366 798.685 385.059C821.519 499.233 818.279 785.197 679.056 905.341" stroke="white"/>
<path d="M693.125 -261.358C652.217 -247.435 571.537 -186.796 576.074 -55.6166C581.746 108.357 705.5 210.97 736.439 365.663C759.274 479.837 756.033 765.801 616.81 885.945" stroke="white"/>
<path d="M629.492 -275.557C588.585 -261.635 507.904 -200.996 512.441 -69.8162C518.114 94.1579 641.868 196.771 672.806 351.463C695.641 465.638 692.4 751.601 553.177 871.746" stroke="white"/>
<path d="M564.919 -284.563C524.011 -270.641 443.331 -210.001 447.868 -78.8218C453.54 85.1522 577.294 187.765 608.233 342.458C631.068 456.632 627.827 742.596 488.604 862.74" stroke="white"/>
<path d="M499.84 -288.487C458.932 -274.565 378.251 -213.925 382.789 -82.7461C388.461 81.228 512.215 183.841 543.154 338.533C565.989 452.708 562.748 738.671 423.525 858.816" stroke="white"/>
<path d="M434.648 -287.532C393.741 -273.609 313.06 -212.97 317.598 -81.7907C323.27 82.1834 447.024 184.796 477.962 339.489C500.797 453.663 497.557 739.627 358.333 859.771" stroke="white"/>
<path d="M369.69 -281.954C328.783 -268.031 248.102 -207.392 252.64 -76.2125C258.312 87.7616 382.066 190.374 413.004 345.067C435.839 459.242 432.599 745.205 293.375 865.349" stroke="white"/>
<path d="M305.251 -272.038C264.344 -258.116 183.663 -197.477 188.201 -66.2974C193.873 97.6767 317.627 200.289 348.565 354.982C371.4 469.157 368.16 755.12 228.936 875.265" stroke="white"/>
<path d="M241.567 -258.072C200.659 -244.15 119.979 -183.51 124.516 -52.3312C130.188 111.643 253.942 214.256 284.881 368.948C307.716 483.123 304.475 769.086 165.252 889.231" stroke="white"/>
<path d="M178.832 -240.318C137.925 -226.396 57.2441 -165.756 61.7818 -34.5769C67.4538 129.397 191.208 232.01 222.146 386.703C244.981 500.877 241.741 786.841 102.518 906.985" stroke="white"/>
<path d="M117.234 -218.998C76.3267 -205.076 -4.354 -144.436 0.183644 -13.2572C5.8557 150.717 129.61 253.33 160.548 408.022C183.383 522.197 180.143 808.16 40.9194 928.305" stroke="white"/>
</g>
<defs>
<clipPath id="clip0_1107_71906">
<rect width="1920" height="374" fill="white"/>
</clipPath>
</defs>
</svg>
