<svg width="78" height="78" viewBox="0 0 78 78" fill="none" xmlns="http://www.w3.org/2000/svg">
<path d="M19.7887 72.275L0.57735 39L19.7887 5.72501H58.2113L77.4226 39L58.2113 72.275H19.7887Z" fill="#F9FAFB" stroke="#E5E7EB"/>
<path d="M25.619 68V58.396H26.949V68H25.619ZM33.6635 68.168C32.6648 68.168 31.8061 67.986 31.0875 67.622C30.3781 67.258 29.8275 66.7073 29.4355 65.97C29.0528 65.2327 28.8615 64.3087 28.8615 63.198C28.8615 62.078 29.0528 61.154 29.4355 60.426C29.8275 59.6887 30.3781 59.138 31.0875 58.774C31.8061 58.41 32.6648 58.228 33.6635 58.228C34.6621 58.228 35.5161 58.41 36.2255 58.774C36.9441 59.138 37.4948 59.6887 37.8775 60.426C38.2695 61.154 38.4655 62.078 38.4655 63.198C38.4655 64.3087 38.2695 65.2327 37.8775 65.97C37.4948 66.7073 36.9441 67.258 36.2255 67.622C35.5161 67.986 34.6621 68.168 33.6635 68.168ZM33.6635 67.02C34.1861 67.02 34.6575 66.95 35.0775 66.81C35.5068 66.67 35.8661 66.4507 36.1555 66.152C36.4541 65.844 36.6828 65.4613 36.8415 65.004C37.0001 64.5373 37.0795 63.9867 37.0795 63.352V63.058C37.0795 62.414 37.0001 61.8633 36.8415 61.406C36.6828 60.9393 36.4541 60.5567 36.1555 60.258C35.8661 59.95 35.5068 59.726 35.0775 59.586C34.6575 59.446 34.1861 59.376 33.6635 59.376C33.1315 59.376 32.6555 59.446 32.2355 59.586C31.8155 59.726 31.4561 59.95 31.1575 60.258C30.8588 60.5567 30.6301 60.9393 30.4715 61.406C30.3221 61.8633 30.2475 62.414 30.2475 63.058V63.352C30.2475 63.9867 30.3221 64.5373 30.4715 65.004C30.6301 65.4613 30.8588 65.844 31.1575 66.152C31.4561 66.4507 31.8155 66.67 32.2355 66.81C32.6555 66.95 33.1315 67.02 33.6635 67.02ZM42.4085 68V59.558H39.1185V58.396H47.0565V59.558H43.7385V68H42.4085ZM47.2233 68L50.9753 62.96L47.5733 58.396H49.2113L51.8293 61.966H51.8993L54.4893 58.396H56.0433L52.6833 62.946L56.4353 68H54.7973L51.8293 63.954H51.7593L48.8053 68H47.2233Z" fill="#4B5563"/>
<g clip-path="url(#clip0_752_6745)">
<path d="M39 51C48.3888 51 56 43.3888 56 34C56 24.6112 48.3888 17 39 17C29.6112 17 22 24.6112 22 34C22 43.3888 29.6112 51 39 51Z" fill="#00D4D5"/>
<path d="M39.5508 22.3125V28.1106L44.5849 25.2152L39.5508 22.3125Z" fill="white"/>
<path opacity="0.9" d="M44.5859 25.2152V31.0133L49.619 28.1105L44.5859 25.2152Z" fill="white"/>
<path opacity="0.8" d="M39.5508 28.1106V33.9087L44.5849 31.0133L39.5508 28.1106ZM44.5849 31.0144V36.8114L49.618 33.9087L44.5849 31.0144Z" fill="white"/>
<path opacity="0.8" d="M39.5508 33.9087V39.7067L44.5849 36.8114L39.5508 33.9087Z" fill="white"/>
<path d="M44.5859 36.8114V42.6094L49.619 39.7067L44.5859 36.8114Z" fill="white"/>
<path opacity="0.4" d="M26.5391 27.915V33.7131L31.5732 30.8103L26.5391 27.915Z" fill="white"/>
<path opacity="0.2" d="M32.8906 30.0706V35.8687L37.9162 32.9734L32.8906 30.0706Z" fill="white"/>
<path opacity="0.3" d="M29.1582 33.7375V39.5356L34.1913 36.6328L29.1582 33.7375Z" fill="white"/>
<path opacity="0.9" d="M32.4766 38.113V43.9111L37.5022 41.0083L32.4766 38.113Z" fill="white"/>
<path opacity="0.7" d="M39.5098 40.6089V46.4081L44.5354 43.5043L39.5098 40.6089Z" fill="white"/>
<path opacity="0.9" d="M33.7285 27.2074V33.0065L38.7541 30.1112L33.7285 27.2074Z" fill="white"/>
<path opacity="0.8" d="M39.5517 22.3125V28.1106L34.5176 25.2152L39.5517 22.3125Z" fill="white"/>
<path opacity="0.6" d="M33.7285 24.7773V30.5743L28.6934 27.6716L33.7285 24.7773Z" fill="white"/>
<path opacity="0.6" d="M38.7626 27.6463V33.4454L33.7285 30.5416L38.7626 27.6463Z" fill="white"/>
<path opacity="0.95" d="M32.8681 30.0706V35.8687L27.834 32.9734L32.8681 30.0706Z" fill="white"/>
<path opacity="0.6" d="M39.551 33.9087V39.7067L34.5254 36.8114L39.551 33.9087Z" fill="white"/>
<path opacity="0.55" d="M29.1591 35.2591V41.0572L24.125 38.1534L29.1591 35.2591Z" fill="white"/>
<path d="M49.619 28.1106V33.9087L44.5859 31.0133L49.619 28.1106Z" fill="white"/>
<path opacity="0.95" d="M44.5849 31.0143V36.8113L39.5508 33.9086L44.5849 31.0143Z" fill="white"/>
<path opacity="0.9" d="M49.619 33.9087V39.7067L44.5859 36.8114L49.619 33.9087Z" fill="white"/>
<path opacity="0.7" d="M44.5849 36.8114V42.6094L39.5508 39.7067L44.5849 36.8114Z" fill="white"/>
<path opacity="0.4" d="M38.4374 39.2274V45.0255L33.4043 42.1302L38.4374 39.2274Z" fill="white"/>
<path d="M44.5849 25.2152V31.0133L39.5508 28.1105L44.5849 25.2152Z" fill="white"/>
</g>
<defs>
<clipPath id="clip0_752_6745">
<rect width="34" height="34" fill="white" transform="translate(22 17)"/>
</clipPath>
</defs>
</svg>
