<svg width="16" height="16" viewBox="0 0 16 16" fill="none" xmlns="http://www.w3.org/2000/svg">
<rect width="16" height="16" rx="8" fill="#111827"/>
<path d="M5.69727 8.36768L7.44189 8.89502C7.32471 9.38428 7.14014 9.79297 6.88818 10.1211C6.63623 10.4492 6.32275 10.6968 5.94775 10.8638C5.57568 11.0308 5.10107 11.1143 4.52393 11.1143C3.82373 11.1143 3.25098 11.0132 2.80566 10.811C2.36328 10.606 1.98096 10.2471 1.65869 9.73438C1.33643 9.22168 1.17529 8.56543 1.17529 7.76562C1.17529 6.69922 1.45801 5.88037 2.02344 5.30908C2.5918 4.73486 3.39453 4.44775 4.43164 4.44775C5.24316 4.44775 5.88037 4.61182 6.34326 4.93994C6.80908 5.26807 7.15479 5.77197 7.38037 6.45166L5.62256 6.84277C5.56104 6.64648 5.49658 6.50293 5.4292 6.41211C5.31787 6.25977 5.18164 6.14258 5.02051 6.06055C4.85938 5.97852 4.6792 5.9375 4.47998 5.9375C4.02881 5.9375 3.68311 6.11914 3.44287 6.48242C3.26123 6.75195 3.17041 7.17529 3.17041 7.75244C3.17041 8.46729 3.27881 8.95801 3.49561 9.22461C3.7124 9.48828 4.01709 9.62012 4.40967 9.62012C4.79053 9.62012 5.07764 9.51318 5.271 9.29932C5.46729 9.08545 5.60938 8.7749 5.69727 8.36768Z" fill="#06B6D4"/>
<path d="M8.42188 4.55762H10.4126V6.81201H12.5879V4.55762H14.5874V11H12.5879V8.39404H10.4126V11H8.42188V4.55762Z" fill="white"/>
</svg>
