<svg width="148" height="19" viewBox="0 0 148 19" fill="none" xmlns="http://www.w3.org/2000/svg">
<path d="M12.4805 10.9805L17.1328 12.3867C16.8203 13.6914 16.3281 14.7812 15.6562 15.6562C14.9844 16.5312 14.1484 17.1914 13.1484 17.6367C12.1562 18.082 10.8906 18.3047 9.35156 18.3047C7.48438 18.3047 5.95703 18.0352 4.76953 17.4961C3.58984 16.9492 2.57031 15.9922 1.71094 14.625C0.851562 13.2578 0.421875 11.5078 0.421875 9.375C0.421875 6.53125 1.17578 4.34766 2.68359 2.82422C4.19922 1.29297 6.33984 0.527344 9.10547 0.527344C11.2695 0.527344 12.9688 0.964844 14.2031 1.83984C15.4453 2.71484 16.3672 4.05859 16.9688 5.87109L12.2812 6.91406C12.1172 6.39062 11.9453 6.00781 11.7656 5.76562C11.4688 5.35938 11.1055 5.04688 10.6758 4.82812C10.2461 4.60937 9.76562 4.5 9.23438 4.5C8.03125 4.5 7.10938 4.98437 6.46875 5.95312C5.98438 6.67188 5.74219 7.80078 5.74219 9.33984C5.74219 11.2461 6.03125 12.5547 6.60938 13.2656C7.1875 13.9688 8 14.3203 9.04688 14.3203C10.0625 14.3203 10.8281 14.0352 11.3438 13.4648C11.8672 12.8945 12.2461 12.0664 12.4805 10.9805ZM16.9883 0.820312H22.8828L26.3516 6.62109L29.8203 0.820312H35.6797L29 10.8047V18H23.6797V10.8047L16.9883 0.820312ZM36.4141 0.820312H46.3516C48.0078 0.820312 49.2773 1.23047 50.1602 2.05078C51.0508 2.87109 51.4961 3.88672 51.4961 5.09766C51.4961 6.11328 51.1797 6.98438 50.5469 7.71094C50.125 8.19531 49.5078 8.57812 48.6953 8.85938C49.9297 9.15625 50.8359 9.66797 51.4141 10.3945C52 11.1133 52.293 12.0195 52.293 13.1133C52.293 14.0039 52.0859 14.8047 51.6719 15.5156C51.2578 16.2266 50.6914 16.7891 49.9727 17.2031C49.5273 17.4609 48.8555 17.6484 47.957 17.7656C46.7617 17.9219 45.9688 18 45.5781 18H36.4141V0.820312ZM41.7695 7.55859H44.0781C44.9062 7.55859 45.4805 7.41797 45.8008 7.13672C46.1289 6.84766 46.293 6.43359 46.293 5.89453C46.293 5.39453 46.1289 5.00391 45.8008 4.72266C45.4805 4.44141 44.918 4.30078 44.1133 4.30078H41.7695V7.55859ZM41.7695 14.3086H44.4766C45.3906 14.3086 46.0352 14.1484 46.4102 13.8281C46.7852 13.5 46.9727 13.0625 46.9727 12.5156C46.9727 12.0078 46.7852 11.6016 46.4102 11.2969C46.043 10.9844 45.3945 10.8281 44.4648 10.8281H41.7695V14.3086ZM54.0703 0.820312H68.2969V4.48828H59.3906V7.21875H67.6523V10.7227H59.3906V14.1094H68.5547V18H54.0703V0.820312ZM70.4961 18V0.820312H79.3438C80.9844 0.820312 82.2383 0.960938 83.1055 1.24219C83.9727 1.52344 84.6719 2.04688 85.2031 2.8125C85.7344 3.57031 86 4.49609 86 5.58984C86 6.54297 85.7969 7.36719 85.3906 8.0625C84.9844 8.75 84.4258 9.30859 83.7148 9.73828C83.2617 10.0117 82.6406 10.2383 81.8516 10.418C82.4844 10.6289 82.9453 10.8398 83.2344 11.0508C83.4297 11.1914 83.7109 11.4922 84.0781 11.9531C84.4531 12.4141 84.7031 12.7695 84.8281 13.0195L87.3945 18H81.3945L78.5586 12.75C78.1992 12.0703 77.8789 11.6289 77.5977 11.4258C77.2148 11.1602 76.7812 11.0273 76.2969 11.0273H75.8281V18H70.4961ZM75.8281 7.78125H78.0664C78.3086 7.78125 78.7773 7.70312 79.4727 7.54688C79.8242 7.47656 80.1094 7.29688 80.3281 7.00781C80.5547 6.71875 80.668 6.38672 80.668 6.01172C80.668 5.45703 80.4922 5.03125 80.1406 4.73438C79.7891 4.4375 79.1289 4.28906 78.1602 4.28906H75.8281V7.78125Z" fill="#06B6D4"/>
<path d="M88.1289 0.820312H93.4375V6.83203H99.2383V0.820312H104.57V18H99.2383V11.0508H93.4375V18H88.1289V0.820312ZM107.309 0.820312H112.629V18H107.309V0.820312ZM113.75 0.820312H119.305L123.172 13.1836L126.98 0.820312H132.371L125.996 18H120.242L113.75 0.820312ZM133.117 0.820312H147.344V4.48828H138.438V7.21875H146.699V10.7227H138.438V14.1094H147.602V18H133.117V0.820312Z" fill="#111827"/>
</svg>
